<svg width="22" height="34" viewBox="0 0 22 34" fill="none" xmlns="http://www.w3.org/2000/svg">
<path d="M11.3775 8.09796C10.5506 8.09796 9.87671 9.43277 9.87671 11.0872C9.87671 12.7348 10.5506 14.0757 11.3775 14.0757C12.1989 14.0757 12.8714 12.7348 12.8714 11.0872C12.8707 9.43277 12.1982 8.09796 11.3775 8.09796Z" fill="#0C76D8"/>
<path d="M6.38964 3.97248C9.40341 3.97248 10.624 4.20028 10.624 6.45647H12.1248C12.1248 2.47787 8.80977 2.47787 6.39033 2.47787C3.38337 2.47787 2.15596 2.25619 2.15596 0H0.660645C0.660645 3.97248 3.97632 3.97248 6.38964 3.97248Z" fill="#0C76D8"/>
<path d="M14.1416 6.45647C14.2837 6.88623 14.3667 7.35066 14.3667 7.83753V14.33C14.3667 16.1531 13.3045 17.6688 11.9133 17.9931C11.916 18.0142 11.9275 18.0332 11.9275 18.0611V23.2766C11.9275 23.5792 11.6807 23.8274 11.372 23.8274C11.0694 23.8274 10.8219 23.5792 10.8219 23.2766V18.0611C10.8219 18.0332 10.8348 18.0149 10.8368 17.9931C9.44554 17.6688 8.3827 16.1531 8.3827 14.33V7.83753C8.3827 7.35134 8.46498 6.88623 8.60778 6.45647C4.48902 7.54173 1.4093 11.2769 1.4093 15.726V24.3728C1.40862 29.6678 5.7409 34 11.0347 34H11.714C17.0085 34 21.3401 29.6678 21.3401 24.3728V15.726C21.3401 11.2769 18.2597 7.54173 14.1416 6.45647Z" fill="#0C76D8"/>
</svg>
