<svg width="22" height="34" viewBox="0 0 22 34" fill="none" xmlns="http://www.w3.org/2000/svg">
<path d="M11.3775 8.0979C10.5506 8.0979 9.87671 9.43271 9.87671 11.0871C9.87671 12.7347 10.5506 14.0757 11.3775 14.0757C12.1989 14.0757 12.8714 12.7347 12.8714 11.0871C12.8707 9.43271 12.1982 8.0979 11.3775 8.0979Z" fill="white"/>
<path d="M6.38964 3.97248C9.40341 3.97248 10.624 4.20028 10.624 6.45647H12.1248C12.1248 2.47787 8.80977 2.47787 6.39033 2.47787C3.38337 2.47787 2.15596 2.25619 2.15596 0H0.660645C0.660645 3.97248 3.97632 3.97248 6.38964 3.97248Z" fill="white"/>
<path d="M14.1416 6.45654C14.2837 6.88629 14.3667 7.35073 14.3667 7.8376V14.3301C14.3667 16.1531 13.3045 17.6688 11.9133 17.9932C11.916 18.0143 11.9275 18.0333 11.9275 18.0612V23.2767C11.9275 23.5793 11.6807 23.8275 11.372 23.8275C11.0694 23.8275 10.8219 23.5793 10.8219 23.2767V18.0612C10.8219 18.0333 10.8348 18.015 10.8368 17.9932C9.44554 17.6688 8.3827 16.1531 8.3827 14.3301V7.8376C8.3827 7.35141 8.46498 6.88629 8.60778 6.45654C4.48902 7.5418 1.4093 11.277 1.4093 15.7261V24.3728C1.40862 29.6679 5.7409 34.0001 11.0347 34.0001H11.714C17.0085 34.0001 21.3401 29.6679 21.3401 24.3728V15.7261C21.3401 11.277 18.2597 7.5418 14.1416 6.45654Z" fill="white"/>
</svg>
